<?xml version="1.0" encoding="UTF-8" standalone="no"?>
<!DOCTYPE svg PUBLIC "-//W3C//DTD SVG 1.1//EN" "http://www.w3.org/Graphics/SVG/1.1/DTD/svg11.dtd">
<svg width="100%" height="100%" viewBox="0 0 20 20" version="1.1" xmlns="http://www.w3.org/2000/svg" xmlns:xlink="http://www.w3.org/1999/xlink" xml:space="preserve" xmlns:serif="http://www.serif.com/" style="fill-rule:evenodd;clip-rule:evenodd;stroke-linejoin:round;stroke-miterlimit:2;">
    <g transform="matrix(0.977444,0,0,1,0.00289556,0)">
        <rect x="0.128" y="2.953" width="10.244" height="11.04" style="fill:rgb(128,128,128);"/>
    </g>
    <g transform="matrix(1,0,0,0.962222,0,0.0858651)">
        <rect x="10.552" y="2.953" width="9.294" height="11.553" style="fill:rgb(255,224,0);"/>
    </g>
    <g transform="matrix(1.54119,0,0,1.82591,-5.19003,-8.17947)">
        <path d="M13.042,5.18C13.042,4.886 12.76,4.647 12.411,4.647L7.332,4.647C6.984,4.647 6.701,4.886 6.701,5.18L6.701,6.245C6.701,6.539 6.984,6.778 7.332,6.778L12.411,6.778C12.76,6.778 13.042,6.539 13.042,6.245L13.042,5.18Z" style="fill:rgb(0,238,255);"/>
    </g>
    <g transform="matrix(3.06436,0,0,1.82591,-20.2063,7.29037)">
        <path d="M13.042,5.18C13.042,4.886 12.9,4.647 12.725,4.647L7.018,4.647C6.843,4.647 6.701,4.886 6.701,5.18L6.701,6.245C6.701,6.539 6.843,6.778 7.018,6.778L12.725,6.778C12.9,6.778 13.042,6.539 13.042,6.245L13.042,5.18Z" style="fill:rgb(51,51,51);"/>
    </g>
    <g transform="matrix(1.5035,0,0,1.17203,-5.8048,-2.77599)">
        <path d="M17.022,16.508L4.056,16.508L7.298,4.724L13.78,4.724L17.022,16.508Z" style="fill:rgb(199,199,199);"/>
    </g>
    <g transform="matrix(3.0361,0,0,3.58241,-20.6271,-25.6539)">
        <path d="M12.169,9.326C12.169,9.082 11.935,8.883 11.647,8.883L8.584,8.883C8.296,8.883 8.062,9.082 8.062,9.326L8.062,10.212C8.062,10.456 8.296,10.655 8.584,10.655L11.647,10.655C11.935,10.655 12.169,10.456 12.169,10.212L12.169,9.326Z" style="fill:rgb(145,145,145);"/>
    </g>
    <g transform="matrix(3.0361,0,0,3.58241,-21.7964,-24.6422)">
        <circle cx="9.121" cy="9.493" r="0.34" style="fill:rgb(255,0,0);"/>
    </g>
    <g transform="matrix(3.0361,0,0,3.58241,-18.9902,-24.6422)">
        <circle cx="9.121" cy="9.493" r="0.34" style="fill:rgb(0,255,0);"/>
    </g>
    <g transform="matrix(3.0361,0,0,3.58241,-16.1061,-24.6422)">
        <circle cx="9.121" cy="9.493" r="0.34" style="fill:rgb(0,1,255);"/>
    </g>
    <g transform="matrix(3.0361,0,0,3.58241,-13.222,-24.6422)">
        <circle cx="9.121" cy="9.493" r="0.34" style="fill:white;"/>
    </g>
</svg>
