<?xml version="1.0" encoding="UTF-8" standalone="no"?>
<!DOCTYPE svg PUBLIC "-//W3C//DTD SVG 1.1//EN" "http://www.w3.org/Graphics/SVG/1.1/DTD/svg11.dtd">
<svg width="100%" height="100%" viewBox="0 0 512 512" version="1.1" xmlns="http://www.w3.org/2000/svg" xmlns:xlink="http://www.w3.org/1999/xlink" xml:space="preserve" xmlns:serif="http://www.serif.com/" style="fill-rule:evenodd;clip-rule:evenodd;stroke-linejoin:round;stroke-miterlimit:2;">
    <g id="Cogwheel" transform="matrix(1.07367,0,0,1.04226,-772.521,-262.152)">
        <g transform="matrix(1.22689,0,0,1.0149,-231.753,-5.33752)">
            <path d="M1009.68,323.261L930.342,323.261L945.379,257.928L994.638,257.928L1009.68,323.261Z" style="fill:rgb(128,128,128);"/>
        </g>
        <g transform="matrix(0.868768,-0.879221,0.706107,0.718653,-234.228,994.494)">
            <path d="M1009.68,323.261L930.342,323.261L945.379,257.928L994.638,257.928L1009.68,323.261Z" style="fill:rgb(128,128,128);"/>
        </g>
        <g transform="matrix(0.00325837,-1.24516,0.999996,0.00269535,462.588,1702.98)">
            <path d="M1009.68,323.261L930.342,323.261L945.379,257.928L994.638,257.928L1009.68,323.261Z" style="fill:rgb(128,128,128);"/>
        </g>
        <g transform="matrix(-0.885363,-0.862,0.692277,-0.732381,1471.31,1689.04)">
            <path d="M1009.68,323.261L930.342,323.261L945.379,257.928L994.638,257.928L1009.68,323.261Z" style="fill:rgb(128,128,128);"/>
        </g>
        <g transform="matrix(-1.22657,-0.0285539,0.0229318,-1.01463,2141.46,1024.18)">
            <path d="M1009.68,323.261L930.342,323.261L945.379,257.928L994.638,257.928L1009.68,323.261Z" style="fill:rgb(128,128,128);"/>
        </g>
        <g id="CogwheelOutter" transform="matrix(1,0,0,1.0149,-2.66667,-5.33752)">
            <path d="M1085.59,620.164C1053.35,651.966 1009.12,671.596 960.357,671.596C861.783,671.596 781.752,591.381 781.752,492.579C781.752,393.777 861.783,313.562 960.357,313.562C1009.18,313.562 1053.46,333.24 1085.71,365.105L1062.63,388.654C1036.32,362.639 1000.19,346.576 960.357,346.576C879.962,346.576 814.691,411.998 814.691,492.579C814.691,573.16 879.962,638.582 960.357,638.582C1000.07,638.582 1036.1,622.617 1062.38,596.75L1085.59,620.164Z" style="fill:rgb(128,128,128);"/>
        </g>
    </g>
    <g id="RGBA" transform="matrix(1.07367,0,0,1.05779,-771.447,-268.773)">
        <g transform="matrix(0.982317,0,0,0.997067,16.3361,-8.06621)">
            <circle cx="953.008" cy="412.594" r="42.667" style="fill:rgb(255,0,0);"/>
        </g>
        <g transform="matrix(0.982317,0,0,0.997067,-73.0268,85.5149)">
            <circle cx="953.008" cy="412.594" r="42.667" style="fill:rgb(0,255,10);"/>
        </g>
        <g transform="matrix(0.982317,0,0,0.997067,111.206,79.2853)">
            <circle cx="953.008" cy="412.594" r="42.667" style="fill:rgb(0,84,255);"/>
        </g>
        <g transform="matrix(0.982317,0,0,0.997067,21.8329,172.697)">
            <circle cx="953.008" cy="412.594" r="42.667" style="fill:rgb(189,189,189);"/>
        </g>
    </g>
</svg>
